<svg id="Layer_1" data-name="Layer 1" xmlns="http://www.w3.org/2000/svg" viewBox="0 0 800 430"><defs><style>.cls-1,.cls-3{fill:#fff;}.cls-2{fill:#006cbf;}.cls-3{font-size:18px;font-family:Arial, Arial;font-weight:700;}.cls-4{fill:none;stroke:#acacac;stroke-miterlimit:10;stroke-width:3px;}.cls-5{fill:#acacac;}</style></defs><title>2-vetor-fase3-TDS</title><rect class="cls-1" width="800" height="430"/><rect class="cls-2" x="50.15" y="79.65" width="173.99" height="87.45" rx="7" ry="7"/><text class="cls-3" transform="translate(99.14 119.4)">Unidade <tspan x="-7.51" y="21.6">de entrada</tspan></text><rect class="cls-2" x="313" y="80.89" width="173.99" height="87.45" rx="7" ry="7"/><rect class="cls-2" x="312.94" y="262.9" width="173.99" height="87.45" rx="7" ry="7"/><text class="cls-3" transform="translate(345.35 128.95)">Processador</text><text class="cls-3" transform="translate(362.93 310.96)">Memória</text><rect class="cls-2" x="575.86" y="79.65" width="173.99" height="87.45" rx="7" ry="7"/><text class="cls-3" transform="translate(624.85 119.4)">Unidade <tspan x="1.99" y="21.6">de saída</tspan></text><line class="cls-4" x1="231.04" y1="130.2" x2="294.28" y2="130.2"/><polygon class="cls-5" points="292.09 137.68 305.04 130.2 292.09 122.72 292.09 137.68"/><line class="cls-4" x1="494.11" y1="130.2" x2="557.35" y2="130.2"/><polygon class="cls-5" points="555.16 137.68 568.11 130.2 555.16 122.72 555.16 137.68"/><line class="cls-1" x1="407.94" y1="179.93" x2="407.06" y2="246.93"/><line class="cls-4" x1="407.8" y1="190.69" x2="407.06" y2="246.93"/><polygon class="cls-5" points="400.29 192.78 407.94 179.93 415.25 192.98 400.29 192.78"/><line class="cls-1" x1="387.02" y1="179.93" x2="386.14" y2="246.93"/><line class="cls-4" x1="387.02" y1="179.93" x2="386.28" y2="236.16"/><polygon class="cls-5" points="378.83 233.88 386.14 246.93 393.79 234.07 378.83 233.88"/></svg>