<svg xmlns="http://www.w3.org/2000/svg" viewBox="0 0 800 488.69"><defs><style>.cls-1{fill:#fff;}.cls-2{fill:#006cbf;}.cls-3{fill:none;stroke:gray;stroke-miterlimit:10;stroke-width:3px;}.cls-4{fill:gray;}.cls-5{font-size:15px;font-family:Arial, Arial;font-weight:700;}.cls-5,.cls-7{fill:#303030;}.cls-6{letter-spacing:-0.07em;}.cls-7,.cls-8{font-size:13.64px;font-family:Arial, Arial;}</style></defs><title>2-vetor-fase3-TDS</title><g id="Layer_3" data-name="Layer 3"><rect class="cls-1" x="-0.85" y="3.85" width="798.96" height="477"/><polygon class="cls-2" points="361.88 351.58 344.49 359.99 327.1 351.58 327.1 327.71 361.88 327.71 361.88 351.58"/><polygon class="cls-2" points="303.92 205.43 344.49 184.97 385.74 205.43 344.83 227.25 303.92 205.43"/><circle class="cls-2" cx="104.91" cy="340.44" r="15.46"/><path class="cls-2" d="M63.45,206.11l14.55-18h53.18s12.73,4.09,12.73,18S130.73,225,130.73,225H78Z"/><rect class="cls-2" x="63.45" y="50.88" width="80.46" height="31.82" rx="11.67" ry="11.67"/><rect class="cls-2" x="303.92" y="51.79" width="81.82" height="36.82"/><line class="cls-3" x1="557.12" y1="334.98" x2="608.06" y2="334.98"/><polygon class="cls-4" points="606.3 340.97 616.67 334.98 606.3 329 606.3 340.97"/><polygon class="cls-2" points="546.21 207.48 562.12 186.34 609.85 186.34 624.39 207.48 608.94 228.61 561.66 228.61 546.21 207.48"/><polygon class="cls-2" points="543.93 60.42 543.93 88.61 624.39 88.61 624.39 51.78 543.93 60.42"/><text class="cls-5" transform="translate(164.37 330.78)">Conector:</text><text class="cls-5" transform="translate(164.37 196.25)">Vídeo:</text><text class="cls-5" transform="translate(164.37 61.15)"><tspan class="cls-6">T</tspan><tspan x="8.05" y="0">erminal:</tspan></text><text class="cls-5" transform="translate(404.38 61.15)">Processamento:</text><text class="cls-5" transform="translate(404.38 194.98)">Decisão:</text><text class="cls-5" transform="translate(647.12 194.98)">Preparação:</text><text class="cls-5" transform="translate(647.12 58.15)"><tspan class="cls-6">T</tspan><tspan x="8.05" y="0">eclado:</tspan></text><text class="cls-5" transform="translate(404.38 329.78)">Conector de<tspan x="0" y="18">Páginas:</tspan></text><text class="cls-5" transform="translate(647.12 331.78)">Seta de</text><text class="cls-7" transform="translate(165.73 353.17)">utilizado para<tspan x="0" y="16.36">interligar partes</tspan></text><text class="cls-7" transform="translate(59.36 385.9)">do fluxograma ou para desviar o<tspan x="0" y="16.36">fluxo corrente para um</tspan><tspan x="0" y="32.73">determinado trecho do</tspan><tspan x="0" y="49.09">fluxograma</tspan></text><text class="cls-8" transform="translate(165.73 217.22)">representa a<tspan x="0" y="16.36">saída de</tspan></text><text class="cls-8" transform="translate(59.36 249.52)">informações por meio do<tspan x="0" y="16.36">monitor de vídeo</tspan></text><text class="cls-7" transform="translate(404.38 215.89)">representa uma<tspan x="0" y="16.36">ação lógica que</tspan></text><text class="cls-7" transform="translate(299.83 249.52)">resultará na escolha de umas das<tspan x="0" y="16.36">sequências de instruções</tspan></text><text class="cls-7" transform="translate(647.12 215.89)">representa uma<tspan x="0" y="16.36">ação de</tspan></text><text class="cls-7" transform="translate(539.85 248.16)">preparação para o processamento</text><text class="cls-7" transform="translate(647.12 78.69)">representa a<tspan x="0" y="16.36">entrada de</tspan></text><text class="cls-7" transform="translate(539.85 111.79)">dados para as variáveis por meio<tspan x="0" y="16.36">do teclado</tspan></text><text class="cls-7" transform="translate(165.73 82.7)">representa o<tspan x="0" y="16.36">início e o final</tspan></text><text class="cls-7" transform="translate(59.36 116.22)">do fluxograma</text><text class="cls-7" transform="translate(404.38 82.7)">representa a<tspan x="0" y="16.36">execução de</tspan></text><text class="cls-7" transform="translate(299.83 116.22)">operações ou ações</text><text class="cls-7" transform="translate(647.12 353.17)">orientação do<tspan x="0" y="16.36">fluxo</tspan></text><text class="cls-7" transform="translate(404.38 370.9)">utilizado para</text><text class="cls-7" transform="translate(299.83 387.26)">interligar partes do fluxograma<tspan x="0" y="16.36">em páginas distintas</tspan></text></g></svg>