<svg xmlns="http://www.w3.org/2000/svg" viewBox="0 0 800 614.67"><defs><style>.cls-1,.cls-5{fill:#fff;}.cls-2{fill:#006cbf;}.cls-3{fill:none;stroke:#999;stroke-miterlimit:10;stroke-width:2px;}.cls-4{fill:#999;}.cls-5,.cls-6{font-size:20.08px;font-family:Arial, Arial;}.cls-6{fill:#303030;}.cls-7{letter-spacing:-0.02em;}.cls-8{letter-spacing:-0.11em;}</style></defs><title>2-vetor-fase3-TDS</title><g id="Layer_2" data-name="Layer 2"><rect class="cls-1" x="-0.27" width="800.54" height="614.67"/><rect class="cls-2" x="207.65" y="260.81" width="159.28" height="90.35"/><polygon class="cls-2" points="207.65 167.79 207.65 213.3 366.94 213.3 366.94 135.66 207.65 167.79"/><rect class="cls-2" x="211.67" y="47.32" width="150.58" height="53.54" rx="26.77" ry="26.77"/><rect class="cls-2" x="211.67" y="520.49" width="150.58" height="53.54" rx="26.77" ry="26.77"/><path class="cls-2" d="M340.17,390s55.55,48.19,0,96.37H266.55S225.72,485,209,439.51c0,0,4.69-42.17,57.56-49.53Z"/><line class="cls-3" x1="286.92" y1="357.67" x2="286.92" y2="380.22"/><polygon class="cls-4" points="282.94 379.06 286.92 385.96 290.91 379.06 282.94 379.06"/><line class="cls-3" x1="286.92" y1="218.58" x2="286.92" y2="251.72"/><polygon class="cls-4" points="282.94 250.56 286.92 257.46 290.91 250.56 282.94 250.56"/><line class="cls-3" x1="287.3" y1="106.41" x2="287.3" y2="141.05"/><polygon class="cls-4" points="283.31 139.89 287.3 146.79 291.28 139.89 283.31 139.89"/><line class="cls-3" x1="286.92" y1="493.01" x2="286.92" y2="509.39"/><polygon class="cls-4" points="282.94 508.22 286.92 515.13 290.91 508.22 282.94 508.22"/><text class="cls-5" transform="translate(282.61 442.85)">a</text><text class="cls-5" transform="translate(269.23 554.84)">Fim</text><text class="cls-5" transform="translate(233.53 313.46)">a = b * h / 2</text><text class="cls-5" transform="translate(269.23 188.09)">b, h</text><text class="cls-6" transform="translate(414.68 180.95)">Entrada em<tspan class="cls-7" x="103.79" y="0"> </tspan><tspan class="cls-8" x="109.01" y="0">T</tspan><tspan x="119.04" y="0">eclado</tspan></text><text class="cls-6" transform="translate(414.68 326.85)">Cálculo</text><text class="cls-6" transform="translate(414.68 444.19)">Saída em Monitor</text><text class="cls-5" transform="translate(261.2 80.11)">Início</text></g></svg>